<?xml version="1.0" encoding="UTF-8"?>
<svg viewBox="0 0 744.09 1052.4" xmlns="http://www.w3.org/2000/svg">
 <defs>
  <linearGradient id="b" x1="-240.57" x2="-239" y1="475.48" y2="475.48" gradientTransform="matrix(0 -319.72 -319.72 0 1.5208e5 -76254)" gradientUnits="userSpaceOnUse">
   <stop stop-color="#c2ef20" offset="0"/>
   <stop stop-color="#0a5116" offset="1"/>
  </linearGradient>
  <linearGradient id="c" x1="-240.57" x2="-239" y1="475.48" y2="475.48" gradientTransform="matrix(0 -319.72 -319.72 0 1.5208e5 -76254)" gradientUnits="userSpaceOnUse">
   <stop stop-color="#9cd305" offset="0"/>
   <stop stop-color="#084703" offset="1"/>
  </linearGradient>
  <linearGradient id="a" x1="-240.58" x2="-238.99" y1="475.48" y2="475.48" gradientTransform="matrix(0 -319.72 -319.72 0 1.5208e5 -76254)" gradientUnits="userSpaceOnUse">
   <stop stop-color="#76aa04" offset="0"/>
   <stop stop-color="#063903" offset="1"/>
  </linearGradient>
  <linearGradient id="d" x1="-240.72" x2="-238.72" y1="475.48" y2="475.48" gradientTransform="matrix(0 -319.72 -319.72 0 1.5208e5 -76254)" gradientUnits="userSpaceOnUse">
   <stop stop-color="#fff" offset="0"/>
   <stop stop-color="#0d56ac" offset="1"/>
  </linearGradient>
 </defs>
 <g transform="translate(300.02 -49.497)">
  <path d="m174.23 633.21c0 68.202-65.694 91.953-124.18 90.247-65.473-1.9095-121.16-36.587-111.82-108.35 7.9616-61.098 56.452-130.71 124.86-126.29 69.882 4.5294 111.12 81.164 111.12 144.39" fill="#9cd305"/>
  <path d="m57.133 491.27c-66.52 0-111.56 69.773-116.97 129.75-6.344 70.396 54.311 99.89 116.47 99.89-56.196 0-115.93-25.267-112.89-90.026 2.8028-59.902 46.789-131.65 113.34-131.65 63.665 0 104.78 65.666 109.81 122.9 6.0099 68.251-48.515 98.772-110.21 98.772 59.691 0.04572 117.58-27.887 114.7-95.128-2.6304-61.523-45.565-134.51-114.26-134.51" fill="#c2ef20"/>
  <path d="m-17.863 526.25c-1.9834 2.2014-0.00703-0.00352 0 0m66.707-39.481c-1.0374 0.09495-1.0374 0.09495 0 0m1.3574-0.1125c-0.95652 0.07033-0.95652 0.07033 0 0m13.704-0.0211c68.704 5.0147 108.97 82.479 108.97 146.28 0 61.559-55.186 87.712-109.7 89.263-53.354 1.5122-120.75-17.928-124.73-81.051-4.1109-65.265 40.585-147.1 109.14-154.23-71.426 7.406-119.87 91.998-112.34 158.99 7.0579 62.768 75.506 81.547 129.22 79.785 68.588-2.2506 119.77-41.285 110.6-114.09-7.2829-57.863-48.252-120.22-111.15-124.94m-12.333-0.0703c-0.90026 0.05978-0.90026 0.05978 0 0m11.127-7e-3c1.2343 0.0844 1.2343 0.0844 0 0m-9.7446-0.0668c-0.8053 0.0422-0.8053 0.0422 0 0m8.4223 0c1.0093 0.04572 1.0093 0.04572 0 0m-7.0157-0.0563c-0.75256 0.02814-0.75256 0.02814 0 0m5.6371 0c0.88971 0.03869 0.88971 0.03869 0 0m-1.3891-0.0316c0.64003 0.01407 0.64003 0.01407 0 0m-2.8485 0c-0.53452 0.01407-0.53452 0.01407 0 0" fill="#76aa04"/>
  <path d="m56.946 688.99c-39.53 0-87.269-5.9185-116.1-36.168 19.039 94.727 209.08 94.9 229.07 0.66464-27.989 29.754-74.359 35.504-112.98 35.504" fill="#7ec405"/>
  <path d="m57.133 489.97c64.523 0 106.24 66.538 111.35 124.56 5.8165 66.06-44.58 98.325-105.31 100.11-54.244 1.593-121.14-19.609-121.14-84.325 7.1054e-15 -61.203 42.112-135.54 109.17-140.15-66.876 4.5154-110.02 76.74-112.8 137.92-3.2036 70.607 64.484 95.786 124.76 94.077 58.615-1.6669 112.34-31.161 109.56-96.166-2.6691-62.251-46.124-136.03-115.6-136.03" fill="#76aa04"/>
  <path d="m48.067 486.84c-0.64354 0.06681-0.64354 0.06681 0 0m1.4137-0.1266c-0.84751 0.08088-0.84751 0.08088 0 0m14.144-0.0949c0.37277 0.02462 0.37277 0.02462 0 0m-12.727-0.0106c-0.93191 0.06682-0.93191 0.06682 0 0m11.236-0.0809c0.75608 0.04571 0.75608 0.04571 0 0m-9.7797-7e-3c-1.0409 0.0633-1.0409 0.0633 0 0m8.3133-0.0563c0.94597 0.03868 0.94597 0.03868 0 0m-6.868-7e-3c-1.1253 0.04572-1.1253 0.04572 0 0m5.2925-0.0422c1.2097 0.02462 1.2097 0.02462 0 0m-3.7311 0c-1.3328 0.02462-1.3328 0.02462 0 0m1.8286-0.0211c-5.071 0 5.0534 0 0 0" fill="url(#d)"/>
  <path d="m57.087 499.24c-27.103 0-52.113 13.43-70.772 32.455 16.838 20.062 42.811 30.844 68.782 30.844 24.708 0 49.377-9.734 66.239-28.031 14.58-15.814-51.677-35.268-64.249-35.268m0.102-8.3696c-13.687 0-27.226 3.2775-39.58 9.1116-3.8472 1.8216-38.046 22.844-35.314 26.484 41.563-43.74 104.65-46.145 147.06-2.2331 2.1451-3.485-25.302-20.541-28.182-22.074-13.518-7.195-28.632-11.288-43.979-11.288" fill="url(#c)"/>
  <path d="m57.133 491.27c-14.102 0-85.996 22.295-70.821 40.424 39.629-40.396 98.761-42.551 139.12-1.9939 14.517-18.473-54.458-38.43-68.296-38.43" fill="url(#b)"/>
  <path d="m51.211 490.17c-8.4223 0.56618-77.324 24.187-69.077 36.077 17.928-19.577 42.161-34.22 69.077-36.077m7.406-0.1793c27.423 0.45716 52.479 14.249 70.864 34.034 2.7324-4.2094-24.965-21.096-28.963-23.185-12.938-6.7379-27.296-10.613-41.901-10.849m-1.484-0.0176c1.9728 0.0211 1.9728 0.0211 0 0" fill="url(#a)"/>
  <path d="m137.48 431.72c0 100.22-160.87 100.22-160.87 0-1.0658e-14 -100.23 160.87-100.22 160.87 0" fill="#9cd305"/>
  <path d="m3.1033 402.71c17.931-21.033 48.892-26.498 74.792-20.01 29.744 7.4517 45.139 30.943 49.658 60.099 6.5444-42.157-28.924-78.748-70.512-78.748-41.658 0-77 36.612-70.512 78.78 2.1733-14.137 7.1598-29.09 16.574-40.121" fill="#c2ef20"/>
  <path d="m107.98 470.1c-7.1704 5.9501-13.212 3.6678-21.061 0.62596-15.452-5.9923-31.91-6.3229-47.988-2.7148-10.462 2.3456-23.037 7.7753-33.155 1.4664-15.026-9.3718-24.135-30.176-26.28-47.056-6.3053 48.241 36.868 87.926 83.949 84.241 42.46-3.3232 76.624-41.187 71.141-84.251-2.4054 18.62-12.196 35.732-26.607 47.689" fill="#7ec405"/>
  <path d="m-25.624 431.72c0 107.28 173.66 100.1 165.08-6.2033-7.9581-98.712-165.08-93.159-165.08 6.2033m27.366 53.171c-72.854-70.051 40.698-173.52 110.57-106.32 72.432 69.65-40.255 173.89-110.57 106.32" fill="#76aa04"/>
 </g>
</svg>
